<?xml version="1.0" encoding="UTF-8" standalone="no"?>
<!-- Created with Inkscape (http://www.inkscape.org/) -->

<svg
   width="113.90322mm"
   height="113.90322mm"
   viewBox="0 0 113.90322 113.90322"
   version="1.1"
   id="svg5"
   inkscape:version="1.2.1 (9c6d41e410, 2022-07-14)"
   sodipodi:docname="sun-sliced.svg"
   xmlns:inkscape="http://www.inkscape.org/namespaces/inkscape"
   xmlns:sodipodi="http://sodipodi.sourceforge.net/DTD/sodipodi-0.dtd"
   xmlns:xlink="http://www.w3.org/1999/xlink"
   xmlns="http://www.w3.org/2000/svg"
   xmlns:svg="http://www.w3.org/2000/svg">
  <sodipodi:namedview
     id="namedview7"
     pagecolor="#505050"
     bordercolor="#eeeeee"
     borderopacity="1"
     inkscape:showpageshadow="0"
     inkscape:pageopacity="0"
     inkscape:pagecheckerboard="0"
     inkscape:deskcolor="#505050"
     inkscape:document-units="mm"
     showgrid="false"
     inkscape:zoom="1"
     inkscape:cx="532.5"
     inkscape:cy="216"
     inkscape:window-width="1920"
     inkscape:window-height="1017"
     inkscape:window-x="-8"
     inkscape:window-y="-8"
     inkscape:window-maximized="1"
     inkscape:current-layer="layer1" />
  <defs
     id="defs2">
    <linearGradient
       inkscape:collect="always"
       id="linearGradient5550">
      <stop
         style="stop-color:#ff00a0;stop-opacity:1;"
         offset="0"
         id="stop5546" />
      <stop
         style="stop-color:#ffcc00;stop-opacity:1;"
         offset="1"
         id="stop5548" />
    </linearGradient>
    <inkscape:path-effect
       effect="powerclip"
       id="path-effect935"
       is_visible="true"
       lpeversion="1"
       inverse="true"
       flatten="false"
       hide_clip="false"
       message="Use fill-rule evenodd on &lt;b&gt;fill and stroke&lt;/b&gt; dialog if no flatten result after convert clip to paths." />
    <clipPath
       clipPathUnits="userSpaceOnUse"
       id="clipPath921">
      <g
         id="g933"
         style="display:none">
        <rect
           style="fill:#4d4d4d;stroke:none;stroke-width:0.264583"
           id="rect923"
           width="76.200005"
           height="3.9687505"
           x="21.787085"
           y="107.89449"
           ry="1.9843752"
           d="m 23.77146,107.89449 h 72.231254 c 1.099344,0 1.984375,0.88503 1.984375,1.98438 0,1.09934 -0.885031,1.98437 -1.984375,1.98437 H 23.77146 c -1.099344,0 -1.984375,-0.88503 -1.984375,-1.98437 0,-1.09935 0.885031,-1.98438 1.984375,-1.98438 z" />
        <rect
           style="fill:#4d4d4d;stroke:none;stroke-width:0.264583"
           id="rect925"
           width="97.102074"
           height="3.7041752"
           x="12.262084"
           y="99.956993"
           ry="1.5875043"
           d="m 13.849588,99.956993 h 93.927062 c 0.87948,0 1.58751,0.708027 1.58751,1.587507 v 0.52916 c 0,0.87948 -0.70803,1.58751 -1.58751,1.58751 H 13.849588 c -0.879477,0 -1.587504,-0.70803 -1.587504,-1.58751 v -0.52916 c 0,-0.87948 0.708027,-1.587507 1.587504,-1.587507 z" />
        <rect
           style="fill:#4d4d4d;stroke:none;stroke-width:0.264583"
           id="rect927"
           width="101.22581"
           height="4.2787371"
           x="9.616251"
           y="89.902832"
           ry="1.5781026"
           rx="0"
           d="m 11.194354,89.902832 h 98.069606 c 0.87426,0 1.5781,0.703834 1.5781,1.578103 v 1.122532 c 0,0.874268 -0.70384,1.578102 -1.5781,1.578102 H 11.194354 c -0.874269,0 -1.578103,-0.703834 -1.578103,-1.578102 v -1.122532 c 0,-0.874269 0.703834,-1.578103 1.578103,-1.578103 z" />
        <rect
           style="fill:#4d4d4d;stroke:none;stroke-width:0.264583"
           id="rect929"
           width="120.64999"
           height="4.4979248"
           x="-0.9670825"
           y="65.031998"
           ry="2.2489624"
           rx="0"
           d="M 1.2818799,65.031998 H 117.43394 c 1.24593,0 2.24896,1.003037 2.24896,2.248962 0,1.245925 -1.00303,2.248962 -2.24896,2.248962 H 1.2818799 c -1.24592517,0 -2.2489624,-1.003037 -2.2489624,-2.248962 0,-1.245925 1.00303723,-2.248962 2.2489624,-2.248962 z" />
        <rect
           style="fill:#4d4d4d;stroke:none;stroke-width:0.264583"
           id="rect931"
           width="120.64999"
           height="4.4979248"
           x="-1.4962492"
           y="78.790329"
           ry="2.2489624"
           rx="0"
           d="M 0.7527132,78.790329 H 116.90477 c 1.24593,0 2.24897,1.003037 2.24897,2.248962 0,1.245926 -1.00304,2.248963 -2.24897,2.248963 H 0.7527132 c -1.24592517,0 -2.2489624,-1.003037 -2.2489624,-2.248963 0,-1.245925 1.00303723,-2.248962 2.2489624,-2.248962 z" />
      </g>
      <path
         id="lpe_path-effect935"
         class="powerclip"
         d="M -1.4691658,-1.3513489 H 122.43406 V 122.55187 H -1.4691658 Z M 23.77146,107.89449 c -1.099344,0 -1.984375,0.88503 -1.984375,1.98438 0,1.09934 0.885031,1.98437 1.984375,1.98437 h 72.231254 c 1.099344,0 1.984375,-0.88503 1.984375,-1.98437 0,-1.09935 -0.885031,-1.98438 -1.984375,-1.98438 z m -9.921872,-7.937497 c -0.879477,0 -1.587504,0.708027 -1.587504,1.587507 v 0.52916 c 0,0.87948 0.708027,1.58751 1.587504,1.58751 h 93.927062 c 0.87948,0 1.58751,-0.70803 1.58751,-1.58751 v -0.52916 c 0,-0.87948 -0.70803,-1.587507 -1.58751,-1.587507 z M 11.194354,89.902832 c -0.874269,0 -1.578103,0.703834 -1.578103,1.578103 v 1.122532 c 0,0.874268 0.703834,1.578102 1.578103,1.578102 h 98.069606 c 0.87426,0 1.5781,-0.703834 1.5781,-1.578102 v -1.122532 c 0,-0.874269 -0.70384,-1.578103 -1.5781,-1.578103 z M 1.2818799,65.031998 c -1.24592517,0 -2.2489624,1.003037 -2.2489624,2.248962 0,1.245925 1.00303723,2.248962 2.2489624,2.248962 H 117.43394 c 1.24593,0 2.24896,-1.003037 2.24896,-2.248962 0,-1.245925 -1.00303,-2.248962 -2.24896,-2.248962 z M 0.7527132,78.790329 c -1.24592517,0 -2.2489624,1.003037 -2.2489624,2.248962 0,1.245926 1.00303723,2.248963 2.2489624,2.248963 H 116.90477 c 1.24593,0 2.24897,-1.003037 2.24897,-2.248963 0,-1.245925 -1.00304,-2.248962 -2.24897,-2.248962 z" />
    </clipPath>
    <linearGradient
       inkscape:collect="always"
       xlink:href="#linearGradient5550"
       id="linearGradient5552"
       x1="65.443336"
       y1="25.609068"
       x2="63.062088"
       y2="116.89032"
       gradientUnits="userSpaceOnUse" />
  </defs>
  <g
     inkscape:label="Layer 1"
     inkscape:groupmode="layer"
     id="layer1"
     transform="translate(-3.5308342,-3.6486511)">
    <path
       style="fill:url(#linearGradient5552);fill-opacity:1;fill-rule:nonzero;stroke-width:0.264583"
       id="path113"
       inkscape:label="Sun"
       sodipodi:insensitive="true"
       clip-path="url(#clipPath921)"
       d="M 117.43406,60.600262 A 56.951611,56.951611 0 0 1 60.482445,117.55187 56.951611,56.951611 0 0 1 3.5308342,60.600262 56.951611,56.951611 0 0 1 60.482445,3.6486511 56.951611,56.951611 0 0 1 117.43406,60.600262 Z"
       sodipodi:type="arc"
       sodipodi:ry="56.951611"
       sodipodi:rx="56.951611"
       sodipodi:cy="60.600262"
       sodipodi:cx="60.482445"
       inkscape:path-effect="#path-effect935" />
  </g>
</svg>
